General
Complete name                    : The Aviator.mkv
Format                           : Matroska
File size                        : 2.56 GiB
Duration                         : 2h 43mn
Overall bit rate                 : 2 251 Kbps


Video
ID                               : 1
Format                           : AVC
Codec ID                         : V_MPEG4/ISO/AVC
Duration                         : 2h 43mn
Bit rate                         : 1 758 Kbps
Nominal bit rate                 : 1 777 Kbps
Width                            : 720 pixels
Height                           : 434 pixels
Display aspect ratio             : 2.35:1
Frame rate                       : 25.000 fps
Resolution                       : 8 bits
Colorimetry                      : 4:2:0
Scan type                        : Progressive
Bits/(Pixel*Frame)               : 0.225
Stream size                      : 2.00 GiB (78%)
Writing library                  : x264 core 79


Audio
ID                               : 2
Format                           : AC-3
Format/Info                      : Audio Coding 3
Codec ID                         : A_AC3
Duration                         : 2h 43mn
Bit rate mode                    : Constant
Bit rate                         : 448 Kbps
Channel(s)                       : 6 channels
Channel positions                : Front: L C R, Surround: L R, LFE
Sampling rate                    : 48.0 KHz
Stream size                      : 523 MiB (20%)
Language                         : English

Text #1
Language                         : Danish

Text #2
Language                         : Finnish

Text #3
Language                         : Norwegian

Text #4
Language                         : Swedish



